HIERARCHY
ROOT Hips
{
	OFFSET 0.00000 0.00000 0.00000
	CHANNELS 6 Xposition Yposition Zposition Zrotation Yrotation Xrotation 
	JOINT LHipJoint
	{
		OFFSET 0 0 0
		CHANNELS 3 Zrotation Yrotation Xrotation
		JOINT LeftHip
		{
			OFFSET 1.64577 -1.42384 0.94276
			CHANNELS 3 Zrotation Yrotation Xrotation
			JOINT LeftKnee
			{
				OFFSET 2.11538 -5.81197 0.00000
				CHANNELS 3 Zrotation Yrotation Xrotation
				JOINT LeftAnkle
				{
					OFFSET 2.36541 -6.49893 0.00000
					CHANNELS 3 Zrotation Yrotation Xrotation
					JOINT LeftToe
					{
						OFFSET 0.17759 -0.48793 1.73865
						CHANNELS 3 Zrotation Yrotation Xrotation
						End Site
						{
							OFFSET 0.00000 -0.00000 0.91205
						}
					}
				}
			}
		}
	}
	JOINT RHipJoint
	{
		OFFSET 0 0 0
		CHANNELS 3 Zrotation Yrotation Xrotation
		JOINT RightHip
		{
			OFFSET -1.43750 -1.42384 0.94276
			CHANNELS 3 Zrotation Yrotation Xrotation
			JOINT RightKnee
			{
				OFFSET -2.10480 -5.78291 0.00000
				CHANNELS 3 Zrotation Yrotation Xrotation
				JOINT RightAnkle
				{
					OFFSET -2.34880 -6.45329 0.00000
					CHANNELS 3 Zrotation Yrotation Xrotation
					JOINT RightToe
					{
						OFFSET -0.22842 -0.62757 1.80469
						CHANNELS 3 Zrotation Yrotation Xrotation
						End Site
						{
							OFFSET -0.00000 -0.00000 0.95886
						}
					}
				}
			}
		}
	}
	JOINT lowerback
	{
		OFFSET 0 0 0
		CHANNELS 3 Zrotation Yrotation Xrotation
		JOINT Chest
		{
			OFFSET 0.06217 1.93758 -0.49272
			CHANNELS 3 Zrotation Yrotation Xrotation
			JOINT Chest2
			{
				OFFSET -0.03114 2.03621 -0.05830
				CHANNELS 3 Zrotation Yrotation Xrotation
				JOINT lowerneck
				{
					OFFSET 0 0 0
					CHANNELS 3 Zrotation Yrotation Xrotation
					JOINT Neck
					{
						OFFSET 0.04421 1.41010 0.26562
						CHANNELS 3 Zrotation Yrotation Xrotation
						JOINT Head
						{
							OFFSET -0.13407 1.43847 0.06181
							CHANNELS 3 Zrotation Yrotation Xrotation
							End Site
							{
								OFFSET -0.04980 1.45844 -0.00689
							}
						}
					}
				}
				JOINT LeftCollar
				{
					OFFSET 0 0 0
					CHANNELS 3 Zrotation Yrotation Xrotation
					JOINT LeftShoulder
					{
						OFFSET 2.18382 1.47753 -0.35694
CHANNELS 3 Zrotation Xrotation Yrotation
						JOINT LeftElbow
						{
OFFSET 0 -5.054600 0.000000
CHANNELS 3 Zrotation Xrotation Yrotation
							JOINT LeftWrist
							{
OFFSET 0 -3.390130 0.000000
CHANNELS 3 Zrotation Xrotation Yrotation
								JOINT lhand
								{
									OFFSET 0 0 0
CHANNELS 3 Zrotation Xrotation Yrotation
									JOINT LFingers
									{
OFFSET 0 -0.572420 -0.000000
CHANNELS 3 Zrotation Xrotation Yrotation
										End Site
										{
OFFSET 0 -0.461500 -0.000000
										}
									}
								}
								JOINT LThumb
								{
OFFSET 0 0.000000 0.000000
CHANNELS 3 Zrotation Xrotation Yrotation
									End Site
									{
OFFSET 0 -0.468550 0.468550
									}
								}
							}
						}
					}
				}
				JOINT RightCollar
				{
					OFFSET 0 0 0
					CHANNELS 3 Zrotation Yrotation Xrotation
					JOINT RightShoulder
					{
						OFFSET -2.06033 1.72839 -0.47437
CHANNELS 3 Zrotation Xrotation Yrotation
						JOINT RightElbow
						{
OFFSET 0 -5.070100 0.000000
CHANNELS 3 Zrotation Xrotation Yrotation
							JOINT RightWrist
							{
OFFSET 0 -3.149570 -0.000000
CHANNELS 3 Zrotation Xrotation Yrotation
								JOINT rhand
								{
									OFFSET 0 0 0
CHANNELS 3 Zrotation Xrotation Yrotation
									JOINT RFingers
									{
OFFSET 0 -0.718190 -0.000000
CHANNELS 3 Zrotation Xrotation Yrotation
										End Site
										{
OFFSET 0 -0.579020 -0.000000
										}
									}
								}
								JOINT RThumb
								{
OFFSET 0 0.000000 0.000000
CHANNELS 3 Zrotation Xrotation Yrotation
									End Site
									{
OFFSET 0 -0.587860 0.587860
									}
								}
							}
						}
					}
				}
			}
		}
	}
}
MOTION
Frames: 4
Frame Time: 0.008333333333333333
14.969276 15.152667 0.152785 -341.827217 261.021568 340.875644 0.000000 0.000000 0.000000 -15.863859 -27.096798 -19.945280 2.753328 10.284674 29.903526 0.202112 11.943264 -19.469695 0.553939 -4.756426 -13.217108 0.000000 0.000000 0.000000 32.592559 -1.601409 24.921223 0.000000 0.000000 0.000000 0.111676 -14.465736 -19.235350 -2.319457 9.500765 -27.375728 2.511716 2.796186 5.314554 -1.606555 3.690865 4.634572 -3.180451 1.885128 2.073837 5.922502 2.036916 -7.550900 -3.566991 2.387705 11.232507 -1.920886 1.181684 4.721793 0.000000 0.000000 0.000000 7.437451 4.404032 -27.731053 16.963926 -26.809331 4.071548 20.498621 2.709134 -12.405091 0.000000 0.000000 0.000000 -7.125000 0.000000 0.000000 -6.140696 43.111438 -0.287219 0.000000 0.000000 0.000000 0.785984 0.406173 34.536542 -19.232479 -29.706007 -5.145771 -16.574565 -19.521111 -1.649354 0.000000 0.000000 0.000000 7.125000 0.000000 0.000000 7.733768 28.227733 3.182517
14.530439 15.171726 0.112195 -346.531384 260.435469 345.605040 0.000000 0.000000 0.000000 -17.097298 -26.948293 -18.340360 2.769248 10.311768 29.992278 0.133464 11.585901 -18.221827 0.282098 -3.380696 -9.344021 0.000000 0.000000 0.000000 31.369337 -2.008506 23.142567 -0.128194 -1.977589 5.458377 0.040896 -12.750506 -17.614981 -2.741024 10.260656 -29.827823 1.791124 2.882734 4.923717 -2.047725 3.785279 4.448676 -3.219703 1.919563 2.086372 6.270556 2.295960 -7.388239 -3.611032 2.706549 11.353119 -1.971785 1.350480 4.753115 0.000000 0.000000 0.000000 7.319065 4.280734 -26.170761 15.801544 -25.248365 3.562336 19.941051 4.495461 -12.157160 0.000000 0.000000 0.000000 -7.125000 0.000000 0.000000 -6.595935 42.792022 -0.361256 0.000000 0.000000 0.000000 1.303434 0.574379 33.988103 -18.493795 -28.784142 -4.784967 -16.841957 -18.264941 -1.696446 0.000000 0.000000 0.000000 7.125000 0.000000 0.000000 7.524513 28.178253 3.104091
14.094299 15.205588 0.070322 -348.638825 259.895344 347.761674 0.000000 0.000000 0.000000 -18.108318 -25.181354 -17.099773 2.793613 10.353122 30.128073 0.041189 11.384012 -16.774321 0.770817 -5.605887 -15.645001 0.000000 0.000000 0.000000 30.547239 -1.584237 17.177164 -1.017236 -6.415653 17.995695 -0.238691 -9.924026 -17.511567 -3.220549 11.043782 -32.427596 1.349612 2.857773 4.453329 -2.357429 3.743132 4.300112 -3.270464 1.892505 2.183056 6.540073 2.652916 -7.259886 -3.582616 3.156692 11.570236 -1.978256 1.584503 4.826012 0.000000 0.000000 0.000000 6.911128 3.604444 -23.399549 14.096254 -22.872023 2.865402 19.577855 7.428371 -11.576899 0.000000 0.000000 0.000000 -7.125000 0.000000 0.000000 -6.814563 42.146974 -0.482173 0.000000 0.000000 0.000000 1.784696 0.671276 33.186447 -17.617819 -27.665069 -4.370319 -16.808076 -17.883365 -3.162811 0.000000 0.000000 0.000000 7.125000 0.000000 0.000000 7.461183 26.659879 3.346696
13.667209 15.248798 0.029519 -349.119229 259.058209 348.045145 0.000000 0.000000 0.000000 -18.843332 -22.998959 -15.385872 2.770704 10.314175 30.000391 0.178409 10.455118 -17.381404 0.419618 -4.130875 -11.449040 0.000000 0.000000 0.000000 29.513676 -1.551016 12.236582 -2.474401 -9.757517 28.222411 -0.130702 -7.487571 -13.130807 -3.269492 11.119034 -32.682353 1.026845 2.793929 4.491117 -2.387458 3.649728 4.142276 -3.125729 1.834810 1.972513 6.667191 2.954182 -7.185405 -3.916826 3.593047 11.758183 -2.074334 1.783356 4.902094 0.000000 0.000000 0.000000 6.002018 2.563102 -19.111598 12.241299 -20.162651 2.186769 19.281289 11.300291 -12.074545 0.000000 0.000000 0.000000 -7.125000 0.000000 0.000000 -7.170029 42.636984 -0.420321 0.000000 0.000000 0.000000 1.848625 0.935308 32.565444 -17.045886 -26.918209 -4.108098 -16.102256 -16.230353 -0.659027 0.000000 0.000000 0.000000 7.125000 0.000000 0.000000 8.174452 29.248295 3.164971
